<svg xmlns="http://www.w3.org/2000/svg" width="64" height="64" viewBox="0 0 64 64">
  <defs>
    <style>
      .cls-1 {
        fill: #000;
        fill-rule: evenodd;
      }
    </style>
  </defs>
  <path id="Instagram" class="cls-1" d="M32.032,19.5A12.231,12.231,0,1,0,44.274,31.727,12.217,12.217,0,0,0,32.032,19.5Zm0,20.183a7.952,7.952,0,1,1,7.959-7.952,7.97,7.97,0,0,1-7.959,7.952h0ZM47.63,19a2.855,2.855,0,1,1-2.855-2.853A2.848,2.848,0,0,1,47.63,19Zm8.108,2.9c-0.181-3.821-1.055-7.206-3.857-10s-6.18-3.662-10-3.853c-3.942-.224-15.758-0.224-19.7,0-3.814.181-7.2,1.054-10,3.843s-3.665,6.174-3.857,10c-0.224,3.939-.224,15.744,0,19.682,0.181,3.822,1.055,7.206,3.857,10s6.18,3.662,10,3.853c3.942,0.224,15.758.224,19.7,0,3.825-.181,7.213-1.054,10-3.853s3.665-6.174,3.857-10c0.224-3.939.224-15.733,0-19.672h0Zm-5.093,23.9a8.054,8.054,0,0,1-4.539,4.535c-3.143,1.245-10.6.958-14.074,0.958s-10.942.277-14.074-.958a8.054,8.054,0,0,1-4.539-4.535c-1.246-3.14-.959-10.592-0.959-14.062s-0.277-10.932.959-14.062a8.054,8.054,0,0,1,4.539-4.535c3.143-1.245,10.6-.958,14.074-0.958s10.942-.277,14.074.958a8.054,8.054,0,0,1,4.539,4.535c1.247,3.14.959,10.592,0.959,14.062S51.892,42.659,50.645,45.789Z"/>
</svg>
