<?xml version="1.0" encoding="utf-8"?>
<!-- Generator: Adobe Illustrator 25.3.1, SVG Export Plug-In . SVG Version: 6.00 Build 0)  -->
<svg version="1.1" id="Layer_1" xmlns="http://www.w3.org/2000/svg" xmlns:xlink="http://www.w3.org/1999/xlink" x="0px" y="0px"
	 viewBox="0 0 24 24" style="enable-background:new 0 0 24 24;" xml:space="preserve">
<g>
	<path d="M14,15c-1.5,0-2.9-0.7-3.9-1.9c-0.3-0.4-0.2-0.9,0.2-1.2c0.4-0.3,0.9-0.2,1.2,0.2c1.1,1.4,3,1.7,4.3,0.6
		c0,0,0.1-0.1,0.1-0.1c0-0.1,0.1-0.2,0.2-0.2l2.4-2.4c0.6-0.6,0.9-1.4,0.9-2.2c0-0.8-0.3-1.6-0.9-2.2c-1.2-1.2-3.1-1.2-4.3,0
		l-1.4,1.4c-0.3,0.3-0.9,0.3-1.2,0s-0.3-0.9,0-1.2L13,4.3c1.9-1.9,4.9-1.9,6.7,0c0.9,0.9,1.4,2.1,1.5,3.4c0,1.3-0.5,2.5-1.4,3.5
		l-2.3,2.3c-0.2,0.2-0.4,0.5-0.6,0.6C16,14.7,15,15,14,15z"/>
</g>
<g>
	<path d="M8.1,20.1c-1.3,0-2.5-0.5-3.4-1.4c-1.9-1.8-2-4.9-0.1-6.9L7,9.6C7.2,9.3,7.4,9.1,7.6,9c1-0.8,2.3-1.1,3.5-0.9
		c1.3,0.2,2.4,0.9,3.2,1.9c0.3,0.4,0.2,0.9-0.2,1.2c-0.4,0.3-0.9,0.2-1.2-0.2c-0.5-0.7-1.3-1.1-2.1-1.2c-0.8-0.1-1.6,0.1-2.3,0.6
		c0,0-0.1,0.1-0.1,0.1c0,0.1-0.1,0.2-0.2,0.2l-2.4,2.4c-1.2,1.3-1.2,3.2,0.1,4.4c1.2,1.2,3.1,1.1,4.3,0l1.4-1.4
		c0.3-0.3,0.9-0.3,1.2,0c0.3,0.3,0.3,0.9,0,1.2l-1.4,1.4C10.6,19.6,9.4,20.1,8.1,20.1z"/>
</g>
</svg>
