<?xml version="1.0" encoding="UTF-8" standalone="no"?>
<!-- Created with Inkscape (http://www.inkscape.org/) -->

<svg
   xmlns:dc="http://purl.org/dc/elements/1.1/"
   xmlns:cc="http://creativecommons.org/ns#"
   xmlns:rdf="http://www.w3.org/1999/02/22-rdf-syntax-ns#"
   xmlns:svg="http://www.w3.org/2000/svg"
   xmlns="http://www.w3.org/2000/svg"
   xmlns:sodipodi="http://sodipodi.sourceforge.net/DTD/sodipodi-0.dtd"
   xmlns:inkscape="http://www.inkscape.org/namespaces/inkscape"
   id="svg2"
   version="1.1"
   inkscape:version="0.48.2 r9819"
   width="282.60999"
   height="282.60999"
   xml:space="preserve"
   sodipodi:docname="BezalelLogo.svg"><metadata
     id="metadata8"><rdf:RDF><cc:Work
         rdf:about=""><dc:format>image/svg+xml</dc:format><dc:type
           rdf:resource="http://purl.org/dc/dcmitype/StillImage" /><dc:title /></cc:Work></rdf:RDF></metadata><defs
     id="defs6"><clipPath
       clipPathUnits="userSpaceOnUse"
       id="clipPath16"><path
         d="m 0,0 340.157,0 0,538.583 L 0,538.583 0,0 z"
         id="path18"
         inkscape:connector-curvature="0" /></clipPath></defs><sodipodi:namedview
     pagecolor="#ffffff"
     bordercolor="#666666"
     borderopacity="1"
     objecttolerance="10"
     gridtolerance="10"
     guidetolerance="10"
     inkscape:pageopacity="0"
     inkscape:pageshadow="2"
     inkscape:window-width="1680"
     inkscape:window-height="998"
     id="namedview4"
     showgrid="false"
     fit-margin-top="0"
     fit-margin-left="0"
     fit-margin-right="0"
     fit-margin-bottom="0"
     inkscape:zoom="1.9166667"
     inkscape:cx="91.163923"
     inkscape:cy="191.73345"
     inkscape:window-x="-8"
     inkscape:window-y="-8"
     inkscape:window-maximized="1"
     inkscape:current-layer="g10" /><g
     id="g10"
     inkscape:groupmode="layer"
     inkscape:label="form"
     transform="matrix(1.25,0,0,-1.25,253.62667,354.87747)"><path
       inkscape:connector-curvature="0"
       id="path102"
       style="fill:#444444;fill-opacity:1;fill-rule:nonzero;stroke:none"
       d="m -94.995578,281.80889 c -16.648372,-0.53633 -30.774812,-4.14944 -43.855122,-10.41553 -12.78542,-6.26116 -23.7909,-14.13884 -32.58033,-24.06023 -16.69211,-18.80982 -31.86219,-45.86228 -30.33288,-81.51782 0.82833,-17.38112 5.77373,-31.79573 12.03571,-44.14039 6.41222,-12.78197 14.72312,-22.901495 24.49841,-31.989282 19.11636,-18.309649 46.15454,-30.240016 79.161895,-30.051733 15.911905,0.09156 32.390887,4.599862 44.73552,10.861857 25.423467,12.672 44.3275596,31.199278 54.929718,57.789898 5.525758,13.73666 9.125189,28.48753 8.425724,47.64356 -0.53641,16.6483 -5.04362,31.65392 -11.599773,44.4345 -6.4134295,13.22983 -14.2806234,23.0608 -24.64233,31.98781 -19.555259,17.27783 -46.74561,30.67821 -80.776542,29.45736 M -173.26151,102.16821 c -3.85252,4.55022 -8.60141,10.70839 -11.73351,16.73225 -9.3836,18.21943 -19.40137,43.21566 -9.44951,81.88087 4.89982,19.0421 15.70933,35.31308 28.01616,47.75563 11.58037,11.71176 29.93432,23.01609 48.91682,27.39777 19.873338,4.67896 41.091069,4.50773 61.609128,-2.00818 18.01337,-5.94135 34.144516,-17.48799 46.1530874,-30.09613 C 3.1430197,230.49226 12.079084,214.62653 16.617791,193.87914 20.10043,177.09628 19.900359,160.00297 16.012048,144.50452 9.9608874,120.15622 -3.6362232,100.91838 -21.239452,86.819245 -36.200511,74.803944 -55.60305,65.551905 -79.90154,62.91138 c -7.654972,-0.783648 -16.062879,-0.09588 -23.57849,0.747275 -29.05299,3.371755 -53.61091,19.4458 -69.78148,38.509555 m 143.344875,7.88768 c 0.142485,0.14504 0.13831,0.88112 -0.0079,0.88674 l -8.394818,-0.0526 c -25.253432,8.99358 -72.265057,9.32013 -101.238187,-0.57205 l -9.28344,-0.0525 4.1e-4,-0.8886 16.21388,0.1 c 0.15401,-1.47704 0.16086,-2.80455 0.0251,-4.27737 l -11.2027,-0.0617 c 13.777,-12.740465 34.89289,-19.996531 56.554353,-19.43085 19.887571,0.414069 38.569847,6.999671 52.343506,20.04935 l -10.457986,-0.0643 c -0.157745,1.32415 -0.164585,2.65163 -0.02507,4.27737 4.718179,0.0238 10.168672,0.2043 15.473018,0.0849 m -30.882429,15.00928 c -9.725957,-0.21193 -16.949593,-0.10417 -27.409533,-0.15864 -0.07067,11.9294 -0.255891,18.56352 -0.310319,28.87945 l 27.55344,0.15946 0.166994,-28.88094 z m -29.175875,-0.17064 c -10.319707,-0.20723 -16.946697,-0.39005 -27.114627,-0.15342 -0.35717,9.86842 -0.39515,17.24159 -0.46339,28.88313 9.58029,0.0494 16.65098,-0.0557 27.411457,0.15074 l 0.167004,-28.88093 z m 58.311013,6.81122 0.06011,-9.72228 c -20.04124,-0.85087 -37.720671,-0.5073 -58.501738,-0.62681 -23.723912,-0.13555 -40.226152,-0.37362 -56.435602,0.12197 -0.17289,3.09751 -0.19181,6.63211 -0.0567,9.5784 l 27.85033,0.15752 0.0424,-7.80492 c 11.79082,-0.0883 40.672531,0.51891 59.239398,0.62365 l -0.04758,7.51515 27.850324,0.15752 z m -29.331666,27.83897 -27.553459,-0.15945 -0.05182,8.25093 c 3.071332,3.70547 7.039497,5.93996 13.373043,5.97403 5.748809,0.0335 11.799774,-2.14442 14.185282,-6.10925 l 0.0457,-7.9559 z m -77.041574,-6.04195 7.37124,0.0448 c 0.15062,-1.32599 0.29947,-1.61954 0.59747,-2.20633 1.03743,-0.293 2.3664,-0.43052 3.68415,0.16678 l 0.43509,2.07148 7.06923,0.0382 c 0.19109,-7.07293 0.0653,-11.35373 0.10457,-17.54142 -6.48306,-0.18105 -11.49618,-0.21114 -20.78107,-0.12001 l 1.51929,17.54594 z m 47.813147,14.12846 0.05182,-8.25083 -27.560507,-0.16147 -0.0398,7.51711 c 2.77981,3.5496 7.47957,6.52388 13.66581,6.70759 5.894938,0.33166 10.76718,-2.14638 13.883534,-5.8122 m 49.001783,-13.57592 2.022389,-17.52489 c -7.225827,-0.18757 -12.825123,-0.0736 -20.342209,-0.11257 l -0.09466,17.53626 7.364168,0.0438 c 0.0079,-0.88663 0.161131,-1.47501 0.459911,-2.50986 1.477739,-0.43042 2.654241,-0.42742 3.685612,0.0229 0.285217,0.59432 0.432095,1.33377 0.572646,2.51177 l 6.333556,0.0339 z m -100.911427,-57.453374 -2.19358,-2.667363 c 0.73837,-0.587758 1.62772,-1.171954 2.66101,-1.754771 -3.38658,-0.753319 -3.53272,-1.051641 -4.6976,-2.677458 l -2.92447,-3.991828 c 7.09853,-4.974871 11.97933,-7.595025 20.83742,-11.22931 l 2.91283,5.614332 c 2.48034,5.169066 2.4784,6.201693 -2.1082,8.385822 -4.57952,2.186077 -9.89744,4.959853 -14.48741,8.320576 m 89.85907,58.421274 -73.68281,-0.41932 c 0.13864,1.18498 0.13295,2.06464 0.12857,3.68898 25.63759,-9.2e-4 48.185487,0.26876 73.526207,0.27039 l 0.02803,-3.53975 z m -38.035777,80.38976 c 4.712848,0.18274 7.936083,3.13961 8.798358,7.86527 2.659551,-1.61082 4.436337,-2.77226 6.505565,-4.52964 -1.302326,-4.28419 -5.554997,-7.69807 -10.263018,-9.20096 -4.119622,-1.34933 -10.311147,-0.34942 -13.26708,1.40052 -3.701358,2.33561 -5.333198,4.24324 -6.823738,7.76963 1.31513,1.18841 3.5177,2.82507 5.28067,4.01466 1.793688,-3.96744 4.61367,-7.4941 9.769243,-7.31948 M -165.55644,121.81193 c -2.67896,3.81597 -7.97244,1.87155 -8.39702,-1.37442 -3.3907,-0.0173 -5.58429,-2.68498 -2.46382,-7.08646 2.08159,-2.93905 5.20279,-6.89972 6.83125,-8.65638 l 10.26831,8.01743 -6.23872,9.09983 z m 16.31341,59.33084 119.508216,0.67928 -0.578686,-1.76899 -118.92203,-0.82267 -0.009,1.91218 z m 0.01,-2.504 c 83.112367,0.77025 109.050201,0.61644 118.772496,0.67519 -0.726275,-1.92338 -2.348434,-1.63105 -5.001491,-1.65169 l -108.451415,-0.61104 c -4.1264,-0.0214 -5.00969,-0.18005 -5.31965,1.58829 m 7.54591,-5.1105 33.1603,0.1834 c -4.71285,-1.20801 -7.79216,-3.13814 -11.02128,-6.545 l -21.94857,-0.12763 -0.19031,6.48822 z m 70.698903,58.4575 c 0.594391,-1.61463 0.756301,-3.67442 0.619157,-5.00339 -4.830923,-6.07154 -12.036151,-8.91213 -19.400338,-8.9552 -8.844572,-0.0453 -16.818892,3.88352 -20.385002,8.58064 -0.15624,1.18019 -0.0234,3.24481 0.41075,4.57159 3.27411,-4.98987 10.518764,-9.66647 19.802214,-9.61386 7.668079,0.0429 15.604922,3.62318 18.953219,10.42022 m -9.601287,-151.540756 0.16724,-3.243415 3.390712,0.01758 c 0.0079,-1.912181 0.02142,-4.126389 -0.123631,-5.009376 -2.930476,-2.223598 -5.438126,-2.386729 -7.796252,-2.402448 l -3.093848,-0.01974 c 0.582368,1.921913 1.451128,3.990724 2.319857,6.059465 0.299797,0.735442 0.588429,1.17913 1.762997,1.189627 l 0.886674,0.0073 -0.165139,3.236242 c -2.061745,-0.154561 -3.533147,-0.162918 -6.042297,-0.18224 l 0.02132,-3.237723 2.504008,0.0095 -2.190224,-3.843849 c -1.749878,-2.955907 -2.338267,-3.109589 -5.436971,-2.834509 l 0.117552,5.752226 c -0.0079,0.438803 0.13831,0.881107 0.881128,0.887169 l 1.615348,0.0096 -0.167262,3.243345 c -1.023563,-0.0071 -3.679986,0.123333 -5.890524,0.261783 l -0.129742,-3.241139 1.769738,-0.137867 -0.388555,-9.586577 c 4.276647,-0.415295 10.61504,-0.676444 14.882725,-0.06132 3.231733,1.789646 4.256796,2.678276 6.455223,5.050705 0.290083,1.325264 0.124846,3.53605 0.112103,6.631849 -0.01164,1.174548 -0.450069,1.616165 -1.634044,1.610769 l -3.82859,-0.167426 z M -101.96072,184.95496 c -0.63487,7.36156 -1.24841,11.48526 -3.48099,15.44641 0.41934,4.42955 -1.36133,6.63066 -1.82079,9.27738 l 0.29425,0.58924 c 1.49054,-3.52637 3.42337,-6.17199 6.38074,-8.06573 0.591014,-0.43843 1.335004,-0.88 1.035954,-1.17459 -0.1425,-0.14504 -0.880404,-0.44604 -2.061014,0.28574 0.45103,-1.47922 2.368764,-2.35139 3.554474,-3.07474 0.591014,-0.43841 0.0079,-0.8867 -0.735248,-0.89276 -1.768286,-0.005 -3.094266,0.86882 -4.133176,1.30574 2.37433,-3.23104 8.001735,-6.8847 13.311658,-7.88313 1.476308,-0.2869 2.799639,-0.5695 3.095743,-1.0127 0.597076,-1.18091 -4.70578,-1.20609 -6.62214,-0.47794 -1.031371,-0.44984 2.065123,-1.02164 1.332817,-1.1768 -1.182099,-0.14957 -3.394808,0.71812 -4.873762,1.59655 -0.882569,-0.74322 2.361236,-1.46466 1.332066,-1.61753 -1.620945,-0.15576 -2.94622,0.13416 -4.420308,0.71806 3.704467,-3.81602 9.303763,-3.92993 14.756892,-4.34222 1.771218,-0.2815 3.980553,0.0275 4.42469,-1.14984 -7.654971,-0.78371 -13.108091,-0.37116 -21.371816,1.6482 m 43.422841,-17.44454 c -3.555683,3.52255 -6.070835,5.27171 -10.209606,6.43162 l 30.210385,0.16664 0.03751,-6.48448 -20.038268,-0.11329 z m 61.6073804,49.72152 c -3.96744391,-1.79372 -8.0781034,-4.17364 -12.1950803,-6.11468 l 1.0449142,-2.20517 6.0272846,2.98107 c 0.8927161,-1.76079 1.63886049,-2.93126 2.2366664,-4.69683 l -5.5699996,-4.89921 1.0456445,-2.78993 5.7132153,5.48541 c 2.0883674,-4.26656 7.8180469,-1.72404 6.3233892,2.53805 -1.3458554,3.96867 -2.2405358,5.73647 -4.6260343,9.70129 M -57.940882,269.6376 c -1.474057,0.58361 -1.625071,0.5798 -3.539929,1.16448 l -1.017839,-3.10478 3.102811,-1.01078 c -0.291535,-1.18131 -1.165872,-2.37043 -2.343864,-3.2554 l -8.435703,6.58347 -0.603383,2.64522 c -1.623629,0.43623 -2.801603,0.57678 -4.716717,0.85721 l -0.722919,-3.0999 5.015013,-1.00334 c 3.257624,-3.07246 6.371323,-6.14646 9.635747,-9.521 -5.168672,1.59173 -10.476404,2.88697 -15.642411,3.88692 -0.438837,-1.03185 -0.724834,-2.06736 -0.87025,-2.95041 5.759252,-1.14118 12.392259,-2.72651 17.709734,-4.61167 0.72893,1.33166 1.023899,2.36201 1.453042,3.98363 -0.744693,1.02657 -1.332055,1.61761 -2.07896,2.34725 l 2.347269,2.07898 c 0.884503,0.73616 1.314397,1.7731 1.749868,2.95589 0.43548,1.1828 -0.157025,1.76489 -1.041539,2.05423 M -179.81783,219.28343 c -2.04142,-4.13733 -3.19879,-6.64979 -4.80212,-11.22152 l 1.62847,-0.73115 c 1.45524,3.25499 3.19542,7.82626 5.0929,10.93657 l 2.2161,-1.0183 c -1.59769,-3.40039 -3.49104,-7.24638 -4.79796,-10.93174 l 3.39892,-1.45378 c 1.44744,3.83778 2.90461,7.08576 4.80284,10.63688 l 2.21611,-1.01831 c -1.74604,-3.99562 -3.9307,-8.71901 -5.23641,-12.85222 -4.4225,1.44673 -8.56053,3.04738 -12.84396,4.79052 1.74241,4.86809 3.77411,9.59525 6.10706,13.88833 l 2.21805,-1.02528 z m 9.64966,-89.98446 c -1.78742,3.52865 -3.58451,7.64707 -5.36777,11.46542 l -2.35814,-1.04125 c 1.64831,-3.82499 2.98936,-6.47314 4.48063,-9.55878 l -3.23514,-1.63858 c -1.64007,3.37901 -3.28087,6.31735 -4.4765,9.84857 l -2.2052,-1.04488 4.33256,-9.8501 -2.05984,-1.18733 c -0.89127,1.61681 -3.58257,7.6399 -4.48135,10.14348 l -2.05569,-0.89758 c 1.94928,-5.5884 3.58302,-8.52859 5.67505,-12.64222 4.40705,2.24086 7.34166,3.72874 11.75139,6.40325 m 164.4240253,-19.6908 -10.8069293,8.33401 -1.460524,-2.07137 7.697337,-5.99583 -6.924117,-0.48475 0.921282,-7.21467 -7.99127,6.73567 -1.758859,-1.9253 10.808092,-8.781927 c 0.733096,0.596119 1.46467,1.335765 2.050879,2.218027 l -1.071536,6.62652 7.0729096,0.19109 1.4627357,2.36831 z M -105.11854,273.64898 c -2.05979,-0.1619 -3.6793,-0.46119 -5.29684,-0.76792 l 0.45576,-2.79963 c 1.32263,0.30208 2.35181,0.4544 3.67591,0.61212 -0.13564,-1.47283 -0.27508,-3.09867 -2.9162,-4.43775 -6.35222,1.58631 -11.21096,1.40942 -16.37403,3.14697 l -0.4396,-0.4472 c 0.74808,-2.20301 1.93015,-3.07925 3.99745,-3.8041 -1.75764,-2.37312 -0.41101,-5.901 0.63942,-8.98585 1.61832,0.74731 2.49869,1.19374 4.55777,1.94033 l -1.3376,2.49717 -2.5021,-1.04266 c -0.44715,1.46503 -1.058,3.97156 0.2627,5.30579 9.44459,-1.42253 13.12047,-0.81021 16.2327,-3.74025 l 0.73088,0.29936 c -0.59747,2.20635 -1.77913,3.08268 -3.84986,3.9585 2.05718,1.77923 3.51505,4.44239 2.16357,8.26519 M 4.0339295,125.42946 -8.0776734,131.4005 c -1.8952942,-3.83896 -3.7976266,-6.65432 -6.1351826,-10.34869 l 2.074824,-1.6115 c 2.1943514,3.1081 3.7961565,5.77282 5.4055132,8.57628 l 3.0964337,-1.59741 c -1.4515224,-3.10204 -3.0533673,-5.76678 -4.9549494,-9.16684 l 2.0736302,-1.16374 5.2503631,9.3086 1.92119529,-1.02311 c -1.5969787,-3.98508 -2.91503789,-5.91118 -4.95767379,-9.60056 l 1.9260518,-1.31814 c 2.63101519,3.84309 4.3782276,7.39086 6.4113974,11.97407 m 7.7364845,40.12423 c 0.119495,4.71966 0.248448,7.51999 -0.06485,10.90588 l -8.6357708,-10.50985 -2.65499141,-0.0131 c 0.2687427,4.56306 0.2499487,8.40163 0.071563,13.40422 0.88525381,0.15151 1.62096471,0.15575 2.65159581,0.16459 0.3147703,-3.08901 0.329537,-6.19183 0.2021148,-9.13617 2.6331768,3.11449 4.973388,6.21696 7.4626286,9.32998 l 3.093858,0.0205 c 0.613984,-5.01235 0.642826,-9.13681 0.371557,-14.30064 l -2.498381,0.13601 z m -198.555384,9.19021 6.31441,3.56871 0.13262,2.95332 c -4.9925,-2.68231 -9.55247,-4.91948 -13.80926,-7.59767 -0.13304,-2.06464 -0.12631,-3.39221 0.0245,-4.71822 6.06816,-4.67988 11.98488,-8.47454 14.20098,-9.49284 l -0.30774,3.09089 c -2.51369,1.60521 -4.29094,2.62978 -6.80949,4.52991 -0.0165,2.94286 0.11881,5.30438 0.25406,7.6659 m 10.04145,-30.15518 c -1.20194,3.9701 -2.25288,7.94359 -3.01522,12.36083 l -2.50281,-0.4582 c 0.30995,-2.79401 1.06551,-5.88375 1.66597,-8.24116 l -10.20399,6.57744 -2.3518,-0.45439 c 0.76354,-4.86507 2.26304,-9.42206 3.6101,-13.83858 l 2.50353,0.89877 c -1.05243,3.09195 -1.95193,6.1802 -2.85893,10.1552 2.06657,-1.16565 9.31755,-6.28107 11.24698,-7.7501 l 1.90616,0.75024 z m 47.09134,-66.33907 c -6.34514,2.613798 -10.04356,4.661574 -15.51952,8.45551 l 1.31322,2.220938 c 0.87481,1.326048 1.61272,1.627021 3.96674,2.37844 l 11.08803,-5.978097 c 1.62288,-0.877048 2.07144,-1.460529 1.19784,-3.234405 l -2.04631,-3.842386 z m 24.30072,2.93739 c -6.19446,1.28772 -8.11298,1.719105 -12.25177,2.878941 l 0.43966,1.472652 c 0.28933,0.884451 -0.15624,1.180177 -0.59854,1.324845 l -2.65349,0.868037 -0.87658,-2.511502 1.47777,-0.430454 -0.87027,-2.950317 c 5.31454,-1.597281 10.48202,-2.741073 13.57849,-3.31304 2.21541,-0.433591 1.77314,-0.288829 1.48939,-2.052997 0,0 -4.71139,-0.326396 -7.07513,-0.487834 -1.9088,-0.15876 -3.82322,-0.46275 -4.55365,-2.675976 l -0.72337,-2.211225 c 1.18282,-0.435792 2.06926,-0.73194 3.54553,-1.018584 l 0.72145,2.218241 -1.91293,0.577444 c 0.1398,0.73716 0.87212,0.892234 1.46388,0.894926 l 10.46142,-0.08782 0.71396,4.130494 c 0.42726,2.654242 -0.30629,2.947021 -2.37581,3.374988 m 42.470849,124.762551 c 0.154784,-2.06175 0.902853,-4.26476 -0.698232,-7.51419 -1.158824,-2.36857 -1.896705,-2.66954 -2.629801,-4.29091 -2.647469,-0.90026 -7.063196,-0.78102 -6.464671,-3.13132 0.302472,-0.8819 1.632584,-1.46691 2.663195,-1.45789 -1.91776,0.87212 -1.77721,2.05012 -0.896842,2.49645 1.173856,0.59495 16.641584,1.86387 19.808466,15.14402 -2.036585,-4.43216 -3.49709,-6.5036 -7.621589,-7.55792 -1.911008,-0.45554 -3.978331,0.26975 -2.068773,0.86872 3.379765,1.05535 6.168091,4.46295 6.599456,6.38153 -1.467612,-2.07337 -3.07764,-3.26661 -5.439172,-3.13137 -0.440732,4.6e-4 -1.328661,0.44082 -0.0079,0.88673 2.208643,0.89388 3.673284,2.22956 4.540138,5.33095 -1.750608,-2.37121 -3.376429,-2.23186 -2.78877,-1.49348 0.872885,1.33305 1.310577,2.81275 1.43949,5.61313 -3.368187,-3.70329 -6.607432,-4.6062 -6.435373,-8.14445 m -67.239301,-44.44386 -0.43212,-2.35934 -6.9253,-0.0364 0.70305,6.19373 17.83117,0.10091 0.0322,-6.18962 -7.07632,-0.0402 c -0.14946,0.87816 -0.15213,1.46996 -0.45462,2.35179 -1.47066,0.4327 -2.35591,0.28114 -3.67855,-0.0205 m -15.55037,12.58702 c -0.58471,-3.5e-4 -1.02844,0.28795 -1.18207,0.87624 l 113.023654,0.64178 c -0.289333,-0.88444 -0.881098,-0.88709 -1.465815,-0.88784 l -110.375749,-0.62981 z m 97.933405,-14.47784 -0.307712,2.06542 c -1.179405,0.2849 -2.944295,0.12752 -3.82954,-0.0247 l -0.276984,-2.0662 -7.517086,-0.0397 -0.04007,6.18767 17.095444,0.0968 0.624467,-6.187 -5.748809,-0.0333 z M 8.9960064e-4,160.62815 C 2.2218813,159.31494 4.1396712,158.44278 6.5079649,156.98008 l -0.8559769,-5.16454 -7.3663588,-0.34003 -0.4272975,-2.65421 14.4434433,0.82088 c 0.431374,1.91847 0.857862,4.13193 0.991641,6.63741 L 0.28421159,163.28082 8.7985064e-4,160.62808 z M -33.68484,176.05422 l -113.32056,-0.6387 -0.29193,0.73279 c 36.24586,0.65057 69.990131,0.39457 113.903323,0.64738 l -0.291258,-0.74058 z m 44.691812,-32.60834 -13.2801788,3.16688 c -1.3001239,-3.9873 -2.7546372,-7.82704 -4.2091308,-11.66672 3.2508429,-1.74505 5.61649119,-2.61603 8.2782441,-3.92997 l 1.0168021,2.36007 c -2.07556501,1.17075 -3.8445623,1.74943 -5.9111151,2.91502 1.0134163,2.51103 1.7397205,4.43444 2.61481709,7.08982 l 10.76837341,-2.59423 0.722188,2.65913 z m -53.907813,-56.446379 4.025306,-7.647739 1.75204,2.227253 -4.914154,8.368943 c -1.187399,2.059851 -2.51294,2.046007 -4.423248,1.005906 -3.084134,-1.635174 -8.229107,-4.177005 -14.262423,-6.415301 l 1.196353,-3.090458 c 7.066167,2.544173 10.004421,4.184942 14.11435,6.124036 1.031371,0.449819 1.762236,0.748795 2.511776,-0.57257 m 1.039268,23.871209 -3.534629,-0.0193 c -18.44738,4.61458 -27.730048,5.00282 -43.649039,4.9094 -24.756469,-0.13765 -43.292599,-5.39969 -43.292599,-5.39969 l -3.98054,-0.0275 c 29.57459,8.2795 65.973369,8.92625 94.456807,0.53675 m 52.115322,87.68476 c -5.0048653,-1.50072 -7.5062371,-2.10259 -12.8011373,-3.9031 0.9036036,-3.82402 1.66523529,-7.65653 2.27272449,-11.03746 5.30171101,0.47337 8.98660301,1.08017 13.54921681,1.70011 l -0.454619,2.35179 c -3.8288187,-0.6086 -6.6299572,-0.92058 -10.7480989,-1.38829 -0.4601575,2.20595 -0.7657379,4.56826 -1.36986121,6.77274 3.09385751,1.04531 6.47362301,2.10067 10.15367711,3.00283 l -0.601946,2.50139 z m -195.266279,1.40141 -0.86756,-2.51658 5.60531,-1.88223 c -0.7185,-2.50613 -1.58874,-5.45654 -2.01259,-8.26175 l -10.62256,1.56308 -0.42535,-2.66126 13.27341,-1.83939 c 0.85861,4.57279 1.7228,8.26588 3.01879,12.98893 l -7.96948,2.6092 z m 16.75015,34.86901 -1.46613,-2.21725 5.62518,-3.95054 -4.52966,-6.50559 -9.02705,5.69215 -1.31175,-2.3648 c 4.29094,-2.62986 7.1044,-4.52517 11.39049,-6.86004 2.18607,3.554 4.81633,6.95633 7.0114,10.50527 l -7.69248,5.70079 z m 147.770026,5.84923 c -0.443447,0.59237 -1.035932,1.17459 -1.775768,1.90618 -1.319255,-1.47816 -4.10609,-4.00418 -6.158419,-6.07828 3.108851,-2.77908 4.7463,-4.54089 6.814758,-6.73902 l 10.269078,8.45824 -1.775759,1.90616 c -2.790251,-2.37505 -5.576811,-4.59716 -8.361435,-6.82638 l -3.408342,3.37307 4.395887,4.00003 z m -56.567591,-55.1393 c -1.770478,-0.30309 -2.357437,-0.60019 -2.940929,-1.04902 -1.773844,0.87362 -2.510325,0.42898 -4.723776,0.85516 3.239274,0.90287 5.734537,2.24759 7.930062,4.90786 -1.611982,-1.18618 -3.229562,-2.51821 -6.174587,-2.83151 -0.878206,-0.14917 0.587698,0.73832 0.437671,1.47968 -1.909103,-1.48796 -4.260903,-1.94251 -6.040362,-1.21479 5.157784,0.47182 2.053818,2.95566 2.053818,2.95566 4.99927,1.35479 8.52153,3.58113 11.600374,6.39988 -1.298652,-4.13125 -1.866461,-7.96349 -2.142271,-11.50292 m 5.026809,49.09732 c 1.337158,-1.60859 -1.450418,-4.57543 -3.06313,-6.20237 -4.100502,-3.85846 -9.542764,-5.50935 -14.996663,-5.53791 -7.661022,-0.0406 -15.050631,3.88947 -18.022301,7.9975 -0.7466,1.03358 -1.63521,2.05861 -0.75407,2.94579 4.01248,-5.5775 10.961029,-9.81107 19.066533,-9.61798 7.659068,0.0484 13.974225,4.05746 17.76967,10.41498 M -172.36332,151.83549 c -0.15157,0.88525 -0.15423,1.47705 -0.15423,1.47705 l 33.59913,0.19092 0.007,-1.3275 -8.25087,-0.0518 c -8.84459,-0.0453 -13.40644,-0.22568 -25.20094,-0.28968 m 132.028272,2.22658 33.8959881,0.18758 c 0.00296,-0.59196 -0.1454464,-0.88304 -0.2900439,-1.32527 l -33.4481692,-0.18703 -0.157745,1.32413 z M -65.54796,78.17107 c 0.755541,-3.08974 0.913326,-4.413885 1.820335,-8.388797 l 2.056435,1.338315 -2.7116,10.005629 c -0.450079,1.61619 -1.191061,1.906911 -2.369784,1.606659 l -4.117421,-1.052359 0.607993,-3.244135 3.089711,0.755592 c 0.885254,0.151562 1.3241,0.157744 1.624331,-1.020902 m -100.38699,32.439098 c -1.48936,2.05303 -3.56611,4.69715 -4.7557,6.46013 -2.82433,3.95844 1.1487,5.89801 3.07591,3.10658 l 5.05135,-7.0399 -3.37156,-2.52681 z m -5.88998,50.07087 21.82623,24.4403 0.14793,-0.73422 -19.31926,-23.69251 -2.65499,-0.0131 z m 161.070372,0.9178 -19.585969,23.46035 0.137945,0.74425 22.0959772,-24.193 -2.6479152,-0.01 z m -62.578856,42.9674 c -0.424583,-3.24606 0.177339,-5.74741 -2.615557,-7.53064 -1.175308,-0.4514 0.144271,1.33087 0.580867,2.06586 -2.201852,-2.22147 -8.530502,-2.55046 -6.326765,-1.36163 2.641163,1.33908 5.443742,1.50698 6.311772,4.16054 -3.085596,-1.49128 -7.074835,-0.18372 -5.013533,0.8593 3.083374,1.19441 5.287141,2.38333 7.921089,5.93853 l 0.14737,-0.14938 c -0.581312,-1.17717 -0.872155,-1.91778 -1.005194,-3.98241 m 37.248066,-71.99918 c -7.954482,-0.18941 -14.590015,-0.23079 -23.429,-0.1301 l -0.0069,1.32747 c 6.92386,0.18079 12.667073,0.067 22.542286,0.12309 l 0.893496,-1.32004 z m -44.88753,41.30601 c -4.557028,-1.4995 -5.585753,-2.54104 -8.373783,-4.61923 -1.629178,1.31586 -3.700616,2.77636 -8.129886,4.52513 l 16.503669,0.0941 z m -37.790561,-40.44514 0.007,-1.32747 c -7.07292,-0.19108 -19.74146,-0.11508 -23.42707,-0.13799 l 0.87285,1.33303 c 10.02063,-0.0874 13.70332,0.22298 22.54743,0.133 m -52.63135,55.84199 19.67877,11.90298 0.007,-0.88675 -20.26232,-13.37692 0.57607,2.36069 z m 163.1422428,-1.43117 -20.4131128,13.14583 -0.0079,0.88671 19.8201636,-11.67515 0.600392,-2.3574 z M -169.16587,108.23564 c -2.66924,3.22612 -3.70663,4.54466 -6.08581,8.07062 -1.0408,1.46951 0.4287,2.5103 1.61683,0.89125 2.3743,-3.23101 4.00421,-5.13155 6.08096,-7.77568 l -1.61198,-1.18619 z m 39.6401,52.24008 c 0.58825,0.15404 1.61758,0.30665 2.35813,0.0164 0.45534,-1.91104 0.76499,-6.03448 0.0467,-8.09988 -0.58851,-0.15309 -1.47361,-0.30507 -2.21417,-0.0145 -0.73908,1.17235 -0.62447,6.18695 -0.19116,8.0984 m 40.485651,32.35687 c -0.584706,-3.6e-4 -1.177942,0.14054 -1.620194,0.28528 l 0.753577,23.13968 0.438866,0.008 0.427741,-23.4312 z m 37.911168,-32.20289 c 0.588508,0.15309 1.46997,0.15188 2.358117,0.0164 0.302895,-1.77052 0.766873,-6.04158 0.04116,-8.10894 -0.435934,-0.29405 -1.619504,-0.29931 -2.207143,-0.0123 -0.741011,1.17941 -0.624477,6.18693 -0.193044,8.1054 m 15.984475,-64.312526 c -0.443455,0.59236 -0.887148,0.881142 -1.766076,0.291066 l -3.232482,-2.230363 1.786952,-2.639984 2.198891,1.483745 c 0.443021,0.296303 0.876982,0.597668 1.327496,0.0069 l 1.482309,-2.055019 0.875067,1.62993 -2.672157,3.514032 z m -2.42734,38.599916 c 0,0 -17.244997,-0.24448 -21.954193,-0.27329 l -0.0079,0.88671 c 6.634014,0.18492 9.576887,0.20093 21.364313,0.2642 l 0.597372,-0.87691 z m 21.375091,76.31307 -15.806948,6.53845 -0.296795,1.02774 14.762458,-5.22184 1.341315,-2.34434 z m -147.077415,1.51908 14.70318,5.38911 -0.28592,-1.03549 -15.72899,-6.7185 1.31175,2.36489 z m 44.50579,-78.44196 -22.10149,-0.12356 0.58426,0.88936 21.50974,0.12143 0.008,-0.88664 z M 2.0588889,214.13018 c 1.9357449,-2.93341 2.6849788,-5.58428 3.4315971,-7.64334 0.5978059,-1.76567 -1.7540233,-2.22023 -2.2015659,-0.89201 -0.9039194,2.49449 -1.9466224,4.99658 -3.28425546,7.49383 l 2.05422426,1.04152 z M -111.78113,227.33287 c -1.78136,1.76037 -6.20048,2.03059 -7.08234,1.72814 0.85522,4.72379 7.05572,2.69321 7.08234,-1.72814 m -40.29401,-66.54069 7.74301,11.24503 0.88672,0.008 -6.86338,-11.23952 -1.76636,-0.0129 z m 122.451076,0.6958 -6.985335,11.15881 0.886704,0.008 7.87203,-11.15135 -1.773418,-0.015 z m -64.85693,55.1883 -2.406434,-16.66481 c -0.740577,0.29105 -0.742018,0.43463 -1.036692,0.73384 l 2.856958,16.07422 0.586178,-0.1432 z m 9.2849,-0.0915 0.446387,0.14536 3.185024,-17.22149 -1.02769,-0.29669 -2.603721,17.37313 z m -36.458776,10.54892 c 1.76782,0.89468 3.68415,0.16675 5.30997,0.0273 -2.50696,-0.74782 -2.05308,-2.51489 -5.59331,-2.67982 l 0.28334,2.65276 z m 18.82501,-19.49129 c -0.44003,0.4415 -0.74128,0.87555 -0.89349,1.31998 l 3.33967,9.15716 0.595124,-0.14822 -3.041344,-10.32876 z m -9.50119,12.46721 c -0.7369,0.44347 -1.76754,0.4347 -2.21732,1.46616 0.58551,0.44144 0.88114,0.88713 1.76417,0.74192 -0.009,1.91927 0.12902,2.80038 1.16251,3.54702 0.009,-2.36003 0.31185,-3.82665 0.91525,-5.44637 -0.59181,-0.003 -1.03625,-0.15448 -1.62461,-0.30886 m 33.752751,-1.42293 4.475781,-9.26392 -0.875531,-0.74124 c -1.347355,3.08701 -2.839822,6.62049 -4.037645,9.85492 l 0.437405,0.15037 z m -113.054411,-46.18242 2.20181,1.19591 0.0284,-5.45389 -2.21681,1.60302 -0.0135,2.65495 z m 49.90576,60.84929 c -3.38657,-0.75332 -5.30098,-1.05766 -7.36152,-1.6604 l 2.35062,1.928 c 2.35181,0.4544 4.11667,0.61167 6.03111,0.91596 l -1.02021,-1.18356 z m 100.641108,1.75297 c 1.917069,-0.28726 3.684873,-0.41862 6.044184,-0.85039 l 2.367544,-1.90353 c -2.065842,0.58097 -3.988045,0.85938 -7.375776,1.57936 l -1.035952,1.17456 z M 10.79577,155.08508 c -0.14055,-1.17797 -0.282552,-2.21201 -0.571905,-3.09648 l -2.2141804,-0.0145 0.7139459,4.13056 2.0721595,-1.01976 z m -79.41068,74.11787 c 1.319994,0.89347 4.711427,1.35195 6.478963,0.91721 0.145269,-0.1427 0.150125,-0.43726 0.298977,-0.73094 -0.884494,0.2895 -5.30095,-0.0331 -7.061272,-1.81358 -0.003,0.59196 -0.003,1.03964 0.283292,1.62723 m 38.204035,19.22821 c -3.230993,-1.34888 2.089097,-4.85124 1.926052,-1.31811 -0.0079,0.88672 -1.038607,1.7664 -1.926052,1.31811 m 5.584361,-152.347205 c 0.717312,2.95398 -3.554478,3.074716 -2.654991,-0.0134 0.887159,-0.881156 1.769007,-0.579001 2.654991,0.0134 M -156.28293,97.84189 c 1.76558,-0.428085 2.20446,0.603749 2.19696,1.490856 -0.45604,2.495664 -4.71745,0.416429 -2.19696,-1.490856 m -1.71873,146.03059 c 1.47848,0.0103 2.20787,0.45283 2.20037,1.33979 0.13931,2.65137 -4.71594,1.29794 -2.20037,-1.33979 m 89.256751,-17.32663 c -0.01303,1.76635 4.846381,2.38401 6.468786,2.39564 0.591795,0.003 0.593216,-0.14086 0.592486,-0.58201 -1.912479,-0.31125 -5.007037,-0.77204 -7.061282,-1.81357 m -43.179431,-0.24031 c -2.06319,1.0146 -5.16527,1.44067 -7.08234,1.72811 4.6e-4,0.44103 -3.6e-4,0.58461 0.58909,0.59458 1.6173,9.8e-4 6.48717,-0.55439 6.49322,-2.32255 m 49.491173,4.40174 c -2.654241,0.42744 -4.859172,-0.31406 -5.887158,-0.91449 1.311762,2.3649 4.401484,3.1205 5.887158,0.91449 m 15.921114,25.5871 c 1.18207,-0.87628 2.499822,-0.27962 2.199602,0.89901 -0.0069,1.32749 -2.656156,1.45985 -2.199602,-0.89901 m -15.901234,-28.68115 c 0.889331,-1.60973 2.218011,-2.05083 3.546968,-2.18799 l 0.153984,-0.58803 c -3.536119,0.12507 -3.110331,1.89742 -5.618446,2.62304 0.734251,0.14769 1.182119,0.14957 1.917801,0.15305 m -36.734745,7.31325 c 0.291969,0.29253 1.317063,1.18131 1.314408,1.77311 -0.294921,-0.005 -0.299768,0.28987 -0.740578,0.29102 -0.579367,-1.18426 -1.907665,-1.63181 -2.339745,-2.9656 l 0.29275,-0.29213 c 0.883294,0.15895 0.734524,0.4518 1.473175,1.19377 m 37.171706,-7.16313 c 1.036266,0.15473 1.915875,0.16041 2.954768,-0.27626 l 0.152138,-1.46995 c -1.328956,0.13758 -2.506169,0.71852 -3.106916,1.74651 m -19.786474,7.25578 c -0.443447,0.59236 -0.899527,2.06275 -1.923831,1.61492 0.891995,-1.17608 2.232303,-4.26507 3.553017,-2.93077 -0.889369,0.58397 -0.887898,0.44039 -1.629186,1.31585 m -3.099889,0.72285 c -0.137135,-1.32887 0.905104,-2.94236 1.64272,-3.9708 0.29492,0.005 0.586899,0.29784 0.58912,0.59458 -1.034767,0.72674 -1.044174,2.64601 -2.231869,3.37638 m -12.800398,-3.46225 c -0.151301,0.88524 1.610047,2.21872 1.158833,3.39403 -1.172406,-0.7393 -1.60447,-2.07285 -2.189504,-3.40304 9.87e-4,-0.14354 0.735731,0.004 1.030671,0.009 m 11.478943,2.71275 c 9.86e-4,-0.14423 -0.291949,-0.29251 -0.435915,-0.29404 0.450059,-1.61616 0.745878,-2.4999 0.758216,-3.68147 0.145269,-0.14272 0.591015,-0.43841 1.027236,0.15975 -0.742009,0.43463 -0.460927,2.79065 -1.349537,3.8157 m 7.36858,0.63673 c -0.743233,0.88254 -2.081152,2.05039 -3.112217,2.93005 0.153273,-1.9178 1.924541,-2.19963 2.670429,-3.67405 l 0.441788,0.744 z m -21.09292,2.68182 c -0.879204,-0.89423 -2.642624,-1.19519 -3.080284,-2.67488 1.32747,0.007 2.20108,1.78065 3.527374,2.23529 -9.8e-4,0.14352 -0.15022,0.43724 -0.44713,0.43997 m 7.537415,-3.94311 c -0.13831,-0.88103 -1.455717,-3.39183 -0.416805,-3.82881 0.436645,0.73513 1.163719,3.09918 0.416805,3.82881 m 2.510572,-0.12491 c -0.294901,-0.005 -0.444404,-0.15208 -0.439607,-0.4472 0.154251,-1.47707 0.160855,-2.80456 -0.421927,-3.83786 0.442221,-0.14471 0.881087,-0.13855 1.03063,0.009 -0.152119,1.46996 -0.01875,2.9499 -0.169195,4.27591 m -4.852718,-1.94515 0.572389,2.20788 c -1.024294,-0.44758 -1.452747,-2.65423 -1.452282,-3.54288 0.442212,-0.14471 0.740547,-0.29106 0.879913,1.335 m 6.322668,2.09729 c 0.452005,-1.62323 0.0229,-3.68554 1.206786,-4.26502 -0.308719,1.32073 -0.752916,2.49796 -0.318886,3.82472 -0.152237,0.44458 -0.153984,0.58803 -0.8879,0.44038 m 14.950251,-12.14372 0.443022,0.2963 1.633303,-2.05151 c -0.444433,-0.15209 -0.734526,-0.45183 -0.734526,-0.45183 l -1.341779,2.2075 z m -40.540193,3.15588 c -0.88667,-0.008 -0.15012,0.43726 -0.88936,0.58398 -0.43328,-0.88594 0.44979,-1.03133 0.89349,-1.31995 l 0.87482,1.32603 c -0.58962,0.29411 -1.46923,0.28837 -1.76754,0.43466 -0.14321,-0.58618 1.17795,-0.14054 1.18207,-0.87626 -0.29492,-0.005 0,0 -0.29345,-0.14889 m 47.3039,0.27066 c -0.298346,0.14623 -9.88e-4,0.14353 -0.298346,0.14623 -0.004,0.73567 1.32264,0.30126 1.177993,0.88488 -0.295384,-0.14154 -1.182099,-0.14955 -1.769018,-0.44671 l 0.893467,-1.32003 c 0.435944,0.29406 1.321178,0.44558 0.87479,1.32601 -0.734249,-0.14768 3.56e-4,-0.5846 -0.878906,-0.59033 m -1.590218,-5.31259 c -0.593265,0.14107 -1.035487,0.28571 -1.627252,0.28309 0.580157,1.62502 0.866825,3.10127 0.853035,5.45236 1.041795,-0.72453 1.193243,-1.61007 1.200715,-3.52226 0.885245,0.15162 1.181358,-0.29147 1.772413,-0.72965 -0.436981,-1.03894 -1.469508,-1.04083 -2.198901,-1.48375 m -16.708449,34.83049 c -0.438126,-0.59079 -0.72893,-1.33158 -0.865374,-2.21972 -2.519277,1.45931 -6.642266,1.28655 -9.283418,-0.0526 -0.1513,0.88525 -0.452014,1.62329 -0.901008,2.20669 2.945835,0.75407 7.957433,0.92734 11.0498,0.0657 m 0.937766,-9.13197 c -2.072899,1.60445 -3.415398,4.39663 0.414871,4.86133 -2.671881,3.81801 1.886598,5.17356 4.391355,5.62449 -6.933562,1.43464 -15.927678,1.24114 -22.549375,-0.12512 2.510304,-0.42899 7.082319,-1.72804 4.453258,-5.57821 3.835876,-0.41485 2.525329,-3.22768 0.471835,-4.8539 -6.160313,-5.04572 -12.927423,-7.2952 -14.648783,-15.70506 -0.74467,1.0265 -2.22287,2.34577 -5.1645,1.88143 -2.65572,-0.45468 -3.08708,-2.37287 -3.51285,-4.14551 -1.0326,-9.2e-4 -1.47363,-0.30507 -2.21494,-0.45508 -0.4265,-2.21352 0.0242,-3.38878 -0.99433,-6.04573 -0.34112,8.83976 2.56277,15.48471 8.86922,20.82876 1.17604,0.89197 0.29565,0.44564 -0.14886,0.29369 -6.89866,-4.4581 -11.2735,-11.99993 -9.88262,-23.33974 0.15702,-1.76488 2.4885,2.67219 2.6235,4.7298 0.73569,0.004 1.76485,0.15726 3.09116,0.61172 -0.44031,-0.88795 -0.57606,-2.36079 -0.41974,-3.54097 -1.77534,-0.007 -1.17947,-0.74101 -1.03211,-0.89058 2.65378,0.46124 4.28148,-0.7105 4.89092,-4.09852 0.73232,0.15503 1.91854,-0.43162 2.06099,-0.28574 0,0 -0.44266,1.03334 -1.77165,1.17048 -0.45164,2.06397 -1.20191,3.97009 -3.26853,4.11023 -0.59781,1.76561 -0.60864,3.82882 0.41567,4.27664 0.30724,-1.17675 1.19517,-1.61708 1.63668,-2.20257 0.14321,0.58619 -1.18473,1.46805 -1.19516,2.64262 1.61566,1.33911 3.82276,1.35151 5.15703,0.0313 -0.72819,-0.89082 -1.17047,-1.77159 -1.16371,-3.09915 -0.58618,0.14322 -1.02988,0.43153 -1.32747,1.0188 -0.8789,-0.59037 0.44441,-0.87332 0.7447,-1.02657 -0.29276,-0.73356 -2.06734,-0.30042 -2.50473,-0.45088 5.7e-4,-0.44762 0.44753,-1.32827 0.89199,-1.17608 0.73086,0.29947 -0.44564,0.29565 -0.1513,0.88526 0.44225,-0.14472 0.43593,0.29407 0.87965,0.006 -0.28814,-1.33238 1.19179,-1.46611 1.64009,-2.35355 -1.03332,-0.44251 -1.02803,-1.62626 1.03399,-1.16757 -1.4639,-0.89496 -2.053,-1.48938 -1.31244,-1.78013 0.44222,-0.14471 1.47143,0.008 2.35179,0.45438 -1.02361,-1.03249 -1.31441,-1.77307 -0.87215,-1.91773 0.44223,-0.14472 0.73572,0.004 1.0277,0.29667 0.15022,-0.43722 0.59466,-0.28525 1.03208,-0.1349 0.8838,0.29511 1.62702,-0.5871 2.50475,0.45086 -0.88378,-0.2951 -1.91709,0.28729 -2.79745,-0.15873 -0.29344,-0.14889 -0.59179,-0.003 -0.44371,0.28835 0.14623,0.29823 1.46877,0.60027 1.31998,0.89345 -1.32601,-0.15039 -1.76297,-1.18964 -2.20375,-1.18883 -0.88671,-0.008 1.31585,1.62913 0.72821,1.91628 -0.88522,-0.1516 -1.91661,-0.60138 -2.35887,-0.45662 -0.74055,0.29104 1.61345,1.04223 1.6108,1.63404 -10e-4,0.14352 -0.58986,-0.0112 -1.32555,-0.0154 -0.44081,4.7e-4 -0.73348,0.29255 -0.44001,0.4415 1.76368,0.60488 2.79359,1.1986 3.97565,0.32221 0.8857,-0.73718 2.21244,-1.17122 2.37095,-2.05451 0.44973,-2.05686 0.62106,-6.03596 -0.11827,-6.19298 -0.30964,3.09798 -0.75676,3.53758 -0.75336,3.38652 -0.1494,-0.14739 0.31327,-2.94496 0.16442,-3.67708 -0.13642,-0.88811 -0.72408,-1.6265 -1.74914,-2.51512 -3.68972,0.7132 -6.20753,3.05415 -9.60984,4.6589 -0.144,-0.002 -0.14471,-0.4426 -0.14471,-0.4426 3.55109,-1.89821 6.22109,-4.68357 9.76203,-5.10326 0.88183,0.30247 1.16897,0.89004 1.90057,1.62991 0.15702,-1.76489 1.6483,-4.85051 1.2252,-7.21499 -1.78476,1.91134 -1.78549,2.49602 -6.5097,4.23988 0,0 -0.44303,-0.2963 -0.1432,-0.58617 7.67602,-2.75798 9.18495,-9.23432 9.69135,-20.28479 -2.21346,0.42629 -5.89907,0.40387 -6.35971,3.4985 1.32748,0.007 2.50911,0.0192 2.94236,0.90522 0.58211,1.61794 -2.07333,2.49304 -4.88414,3.79657 -1.19637,3.09046 -3.69959,3.52106 -4.01366,7.05085 -0.16157,2.3637 0.41899,3.10014 0.11799,4.86354 -0.45987,3.53539 -3.70664,3.5192 -5.3426,6.16254 0.29908,-0.73092 -0.42238,-2.94918 -1.01153,-3.54359 0.60411,-2.20448 1.2027,-3.52927 2.82628,-4.99099 1.18546,-1.02731 0.89954,-2.06282 -1.90882,-0.15877 1.48378,-2.19891 3.99454,-3.51627 2.3721,-3.5279 -3.53461,-0.0193 -7.54298,4.82267 -9.02867,7.02868 0,0 -0.89007,1.16895 -0.29149,-0.15624 2.98254,-6.17118 6.9856,-9.82946 14.22008,-13.02753 3.25695,-1.4623 6.64688,-1.88546 6.64539,-2.76706 0.0172,-2.50202 -9.7242,-0.0503 -13.71155,1.24841 8.74374,-8.34491 15.07124,-6.54254 19.4986,-8.28419 -16.34252,-1.56922 -24.05148,6.04896 -26.12704,8.24523 0,0 -0.44344,0.59235 -0.1481,-0.29096 0.90023,-2.64752 4.89626,-5.2822 10.36248,-8.48628 -1.76149,-0.3082 -5.30243,0.11203 -7.66512,1.72033 -4.43827,2.77936 -6.51117,4.38383 -10.07873,9.22491 2.09394,-5.14615 4.90033,-7.0434 8.75726,-10.99995 -4.41721,-0.76232 -6.94106,2.32139 -8.27459,4.08289 -0.44859,0.58355 0.15132,-0.88527 0.3003,-1.17869 0.74733,-1.61832 1.48571,-2.206 2.8173,-2.93496 -3.53681,-0.31606 -5.7616,3.06242 -7.25024,4.53072 0,0 -0.29276,0.29213 -0.28784,-0.004 0.89612,-1.91175 2.0782,-2.788 3.41174,-4.54948 -3.53684,-0.31608 -4.42885,0.86007 -6.67422,7.91694 -0.003,0.1509 -0.29835,0.14621 -0.29688,0.003 0.31521,-3.97763 1.65434,-5.59323 2.99565,-7.93755 -3.82544,-0.75964 -5.32228,3.20557 -6.25326,11.01006 -0.007,0.43881 -0.29608,0.44302 -0.29691,0.003 -0.13052,-2.65646 0.32684,-5.60004 0.78,-7.80789 0.45534,-1.91103 1.34661,-3.52783 -1.30618,-3.24451 -2.53765,5.43471 -3.90456,12.94507 -2.62883,22.67604 2.95174,24.18266 17.89177,39.73963 36.41247,48.68923 -23.5425,-6.61931 -42.47058,-21.31699 -53.54765,-42.59891 -6.11648,-11.96914 -9.28894,-24.36963 -9.80761,-36.30882 -0.41371,-6.33466 0.0651,-12.37917 1.42015,-17.37848 l 44.05906,0.2473 0.0193,-3.53465 -43.32338,-0.2431 c 2.89792,-16.78362 11.36628,-29.55663 19.98154,-40.56507 -0.0123,1.76628 -0.0264,3.83659 0.25182,6.34349 45.5439,-0.18166 82.376388,0.46294 129.530799,0.58479 0.162651,-1.61899 0.165889,-2.79548 0.176115,-4.27395 9.225634,10.5195 15.7865654,22.64086 18.7840541,38.86752 -10.8987961,-0.0622 -24.0173791,-0.28433 -42.2907871,-0.24084 l -0.01925,3.53465 c 11.938429,0.0658 29.030498,0.3135 43.0335755,0.24738 0.8395025,8.1074 1.2456963,14.30334 0.3139905,22.69255 -2.3203907,19.00047 -10.665431,34.42804 -21.784208,46.58868 -9.490784,10.26717 -21.031963,18.4532 -35.204136,23.82161 -2.070719,0.8758 -4.281978,1.59919 -6.497363,2.03275 19.350312,-7.85389 35.082745,-27.50865 36.54792,-52.25841 0.330207,-6.77653 -0.367974,-13.26518 -2.250901,-18.28574 -3.390238,-0.90637 -2.220962,1.31322 -1.354877,3.97378 -2.037277,-3.84755 -4.684756,-4.74774 -7.935628,-4.02823 l 1.904977,2.22359 0.874367,2.21462 c -1.466132,-2.21728 -4.389125,-5.32753 -7.490465,-4.46071 3.525952,2.37915 4.545409,4.14743 5.113198,6.95411 0,0 0.145437,0.88307 -0.435934,-0.29407 -3.207313,-6.50781 -7.915749,-7.12204 -10.129209,-6.69556 1.908363,1.04714 3.672534,1.78883 4.990583,3.71485 0.288623,0.44342 -0.005,0.29524 -0.005,0.29524 -6.60522,-4.30932 -9.850052,-4.33253 -13.389556,-4.05672 2.798483,0.90361 8.382034,3.14778 10.716195,8.01858 0.43331,0.88599 -0.005,0.29522 -0.147391,0.14936 -6.304545,-6.37666 -14.392836,-9.07181 -28.547371,-8.11956 0.725574,2.50809 3.983228,0.46073 12.367119,2.57635 2.206344,0.59747 4.263568,1.35078 6.024333,2.24344 6.025844,3.12505 9.683365,7.71284 9.672477,9.77603 -4.244439,-4.88533 -11.296787,-8.75505 -18.077432,-8.34957 -0.29492,-0.005 -0.290093,-0.29982 0.005,-0.29523 3.688278,-0.56954 0.609454,-3.388 -6.613019,-3.72654 0.689526,8.84878 2.276337,14.31235 6.662788,20.23166 l -0.145496,0.14271 c -1.46317,-1.47963 -2.344307,-2.36679 -3.224241,-3.7018 -0.01511,2.79891 -0.02507,4.27744 1.001383,6.04757 l 0.734962,-0.43687 c 3.535368,0.45967 6.173392,3.27945 9.700548,5.21076 0,0 -5.62e-4,0.44762 -0.152326,0.44456 -3.379074,-1.64013 -5.874376,-4.01028 -9.548785,-4.76655 -1.038162,0.87771 -1.634063,1.61075 -1.783577,2.4889 -0.150036,0.74131 0.27582,3.53949 0.128597,3.689 -9.87e-4,0.14423 -0.441097,-0.30288 -0.718052,-3.39482 -0.739116,0.14671 -0.61356,4.12378 -0.183528,6.1862 0.145447,0.88306 1.464641,1.33578 2.347229,2.07899 1.168991,0.89012 2.209345,0.30927 3.980286,-0.27632 0.289285,-0.14121 -4.53e-4,-0.44104 -0.441551,-0.43988 -0.73572,-0.004 -1.328966,0.13668 -1.327495,-0.007 0.003,-0.59196 2.366832,-1.31883 1.626966,-1.61273 -0.437385,-0.15037 -1.469201,0.28837 -2.357387,0.42472 -0.586868,-0.29785 1.631843,-1.90765 0.750281,-1.90621 -0.445904,-0.008 -0.888619,1.0251 -2.217576,1.16226 -0.148102,-0.29098 1.177223,-0.58163 1.333063,-0.87293 0.14894,-0.29364 -0.151843,-0.44407 -0.441058,-0.30288 -0.887889,0.4404 -1.91782,-0.15304 -2.802343,0.1357 0.888639,-1.0251 1.618784,-0.14172 2.510345,-0.429 0.442212,-0.14472 0.884483,-0.28949 1.02916,0.15307 0.292749,-0.29211 0.591005,-0.43841 1.02841,-0.28793 0.444433,0.15209 0.145447,0.88306 -0.889044,1.91372 0.887899,-0.4404 1.914858,-0.58403 2.359321,-0.43204 0.730845,0.29935 0.136424,0.88819 -1.340604,1.75962 2.069534,-0.42782 2.05912,0.74659 1.027275,1.18542 0.433309,0.88601 1.910307,1.04005 1.606672,2.36981 0.443021,0.2963 0.444157,-0.15209 0.886685,0.008 0.29952,-0.59394 -0.88404,-0.59918 -0.143314,-0.89007 0.442222,-0.14473 0.882589,0.7432 0.876271,1.18207 -0.442222,0.14472 -2.211269,-0.30194 -2.510315,0.42899 0.300566,0.15032 1.623295,0.45201 0.733816,1.03672 -0.29418,-0.58995 -0.730135,-0.88379 -1.318524,-1.03741 -0.0069,1.3275 -0.599246,1.90957 -1.194436,3.08338 1.902066,1.486 3.527847,1.34659 5.157034,0.0313 0.004,-1.1765 -1.316588,-2.06998 -1.170007,-2.66028 0.445204,0.59301 1.325561,1.03937 1.610048,2.21875 1.036978,-0.43004 1.047836,-2.49304 0.471094,-4.26912 -2.068813,-0.1569 -2.795108,-2.08013 -3.225001,-4.14257 -1.324091,-0.15775 -1.755909,-1.18767 -1.755909,-1.18767 0.147392,-0.14939 1.321189,0.44558 2.058331,0.30547 0.567068,3.39147 2.186118,4.57955 4.840359,4.15231 0.149612,0.14739 0.72819,0.89084 -1.038143,0.87773 0.140551,1.178 -0.01313,2.65498 -0.459891,3.53541 1.326765,-0.43426 2.360802,-0.57636 3.096523,-0.57219 0.161921,-2.05982 2.539562,-6.46734 2.677448,-4.69754 1.264115,11.35333 -3.196633,18.84388 -10.14667,23.22135 -0.44931,0.14259 -1.33719,0.5829 -0.148112,-0.29097 6.36769,-5.27393 9.349513,-11.88594 9.105902,-20.72638 -1.044154,2.64603 -0.606759,3.82183 -1.068871,6.03479 -0.737182,0.14005 -1.182849,0.4358 -2.206422,0.4285 -0.45387,1.76711 -0.909211,3.67812 -3.563452,4.10536 -2.650825,0.27651 -4.413802,-0.91331 -5.293449,-1.94444 -0.457976,2.50285 -1.206786,4.26502 -2.689104,6.32006 -3.12048,4.40146 -7.841294,5.99426 -11.990943,9.21734 m -22.998547,-24.15388 0.44368,-0.28833 -1.16222,-2.21753 -0.591,0.43842 1.30956,2.06802 z m 88.990097,3.60402 c 2.521637,-3.38052 4.903739,-7.19441 7.136784,-11.01863 l 2.0530397,1.48938 c -2.0857017,3.67474 -3.7182557,6.1671 -5.6525297,8.95655 l 3.232463,2.23039 c 1.9369304,-3.38129 3.5665614,-5.58574 5.5030268,-9.10385 l 2.0527733,1.18538 -5.5030167,9.10393 1.9124995,1.33693 c 1.1876461,-1.75595 4.4532358,-6.6038 5.6483837,-9.24641 l 2.20037149,1.33986 c -2.82065319,5.1369 -4.76053399,7.78057 -7.57782119,11.74097 l -11.0059739,-8.0145 z m -18.433176,27.59719 c -1.171912,-1.6277 -1.310971,-1.92412 -4.697568,-2.67746 1.035231,-0.58972 1.922647,-1.16704 2.661023,-1.75476 l -2.193611,-2.66734 c -4.589976,3.36071 -11.681718,7.00811 -16.261251,9.19419 l 1.459803,2.65614 c 4.428816,-1.88561 8.570964,-4.22193 12.560173,-6.55461 2.35401,0.75141 3.093887,1.04537 3.966743,2.37843 l 1.313223,2.22097 c -5.17957,3.65488 -8.725067,5.69898 -14.635007,8.16616 l 1.456418,2.80713 c 5.909941,-2.46719 10.052088,-4.8036 14.931872,-8.16836 1.480364,-1.02243 1.930137,-2.05382 0.610134,-3.97274 l -1.171981,-1.62775 z m -61.868957,22.63682 c -0.0079,0.88666 -0.307248,1.17678 -0.748078,1.17747 l -3.096026,-0.31649 0.16682,-2.35475 1.46993,0.1519 0.16389,-3.09236 c 5.306557,0.17806 11.055357,0.21141 15.767958,0.09 1.471402,0.008 1.034757,-0.72674 1.045654,-1.76446 0,0 -4.860209,-1.05847 -7.802322,-1.65959 -1.768544,-0.30971 -3.524472,-1.49765 -3.515785,-3.85769 l 0.01382,-2.35105 c 1.02917,0.15307 2.356656,0.15992 3.685612,0.0229 0.141715,0.72975 0.283046,1.32333 -0.01717,2.50202 l -2.063237,-0.0109 c -0.004,0.73578 0.142782,1.47486 3.527157,1.93131 l 8.689739,1.08245 0.269522,3.97834 c 0.130512,2.65646 -0.455775,2.79965 -2.666333,2.9383 -4.570107,0.2671 -10.757782,0.22684 -14.882705,0.0613 l -0.0079,1.47144 z M -146.01209,260.2981 c -0.59028,0.87888 -0.88861,1.02504 -1.32454,0.73082 -1.02797,-0.60074 -1.76297,-1.18954 -2.49601,-1.78546 l 1.33838,-2.05642 1.31996,0.89348 1.63596,-2.64333 c 4.40972,2.67451 9.54469,5.50224 13.65682,7.73817 1.32336,0.74252 1.32748,0.007 1.77529,-1.01754 0,0 -3.8082,-3.26175 -6.01298,-5.1953 -1.46099,-1.18275 -2.48411,-3.10396 -1.14576,-5.16039 l 1.19106,-1.90694 3.0793,1.9302 -1.18548,2.05273 -1.76296,-1.18954 c -0.44492,0.7364 -0.60001,1.46872 2.04554,3.40157 l 7.18611,5.34961 -1.78545,3.52157 c -1.19226,2.35471 -1.78062,2.2011 -3.69238,1.30494 -4.11553,-2.08493 -9.55103,-5.06333 -13.07477,-7.14572 l -0.74809,1.17755 z" /></g></svg>
