<svg id="Layer_1" data-name="Layer 1" xmlns="http://www.w3.org/2000/svg" viewBox="0 0 326 127">
  <rect x="34.84" y="6.5" width="56.7" height="28.34" style="fill:none;stroke:#555555;stroke-linejoin:round;stroke-width:11px"/>
  <rect x="6.5" y="34.84" width="28.34" height="56.7" style="fill:none;stroke:#555555;stroke-linejoin:round;stroke-width:11px"/>
  <rect x="34.84" y="91.54" width="56.7" height="28.34" style="fill:none;stroke:#555555;stroke-linejoin:round;stroke-width:11px"/>
  <polygon points="204.92 6.5 204.92 34.84 176.58 34.84 176.58 63.19 119.88 63.19 119.88 6.5 204.92 6.5" style="fill:none;stroke:#555555;stroke-linejoin:round;stroke-width:11px"/>
  <polygon points="204.92 63.19 204.92 119.88 119.88 119.88 119.88 91.54 176.58 91.54 176.58 63.19 204.92 63.19" style="fill:none;stroke:#555555;stroke-linejoin:round;stroke-width:11px"/>
  <polygon points="261.62 91.54 289.96 91.54 289.96 119.88 233.27 119.88 233.27 6.5 289.96 6.5 289.96 34.84 261.62 34.84 261.62 91.54" style="fill:none;stroke:#555555;stroke-linejoin:round;stroke-width:11px"/>
  <rect x="289.96" y="34.84" width="28.35" height="56.7" style="fill:none;stroke:#555555;stroke-linejoin:round;stroke-width:11px"/>
</svg>
